<svg width="166" height="50" viewBox="0 0 166 50" fill="none" xmlns="http://www.w3.org/2000/svg">
<path d="M158.438 0H7.56227C3.38604 0 0 3.38604 0 7.56227V24.3378C0 28.514 3.38604 31.9001 7.56227 31.9001H16.3317V49.3918L34.4186 31.9001H158.438C162.614 31.9001 166 28.514 166 24.3378V7.56227C165.997 3.38268 162.614 0 158.438 0Z" fill="#1677BD"/>
<path d="M27.3685 9.78519C27.9536 10.0172 28.4815 10.4274 28.9556 11.0091C29.3389 11.4833 29.5979 12.0683 29.7324 12.7576C29.8164 13.2149 29.8568 13.8874 29.8568 14.7718L29.8332 23.3596H26.1816V14.6844C26.1816 14.1665 26.0975 13.7429 25.9327 13.41C25.6167 12.7778 25.0316 12.4584 24.1842 12.4584C23.199 12.4584 22.5232 12.8652 22.1466 13.6823C21.9549 14.1161 21.8607 14.6373 21.8607 15.2459V23.3596H18.2729V15.2459C18.2729 14.4389 18.1889 13.8505 18.0241 13.4839C17.7249 12.8249 17.1364 12.4954 16.2622 12.4954C15.2467 12.4954 14.5607 12.8249 14.211 13.4839C14.0194 13.8605 13.9219 14.4187 13.9219 15.1585V23.3596H10.3105V9.75829H13.7739V11.7455C14.2144 11.036 14.6314 10.5317 15.0248 10.2324C15.7174 9.69777 16.6119 9.43213 17.7114 9.43213C18.7538 9.43213 19.5944 9.66078 20.2366 10.1181C20.7545 10.5418 21.1445 11.0898 21.4102 11.7556C21.8776 10.9553 22.4559 10.3669 23.1486 9.99367C23.8816 9.61707 24.6987 9.43213 25.5998 9.43213C26.1916 9.43549 26.7834 9.55318 27.3685 9.78519Z" fill="white"/>
<path d="M33.6701 25.9753L34.1207 25.9988C34.4704 26.0157 34.8033 26.0022 35.1193 25.9619C35.4354 25.9215 35.7044 25.824 35.9196 25.6761C36.1281 25.5348 36.3231 25.2389 36.5013 24.7884C36.6795 24.3378 36.7569 24.062 36.7333 23.9645L31.7266 9.73779H35.691L38.6668 19.7883L41.4778 9.73779H45.264L40.5935 23.1374C39.6923 25.7198 38.9761 27.3237 38.4516 27.9424C37.927 28.5644 36.8746 28.8738 35.2975 28.8738C34.9815 28.8738 34.7259 28.8704 34.5343 28.8671C34.3426 28.8637 34.0534 28.8469 33.6701 28.8234V25.9753Z" fill="white"/>
<path d="M53.0084 4.76816C53.19 4.78161 53.4422 4.79842 53.7583 4.82532V7.72716C53.5565 7.70362 53.2236 7.68344 52.7529 7.66999C52.2821 7.65654 51.956 7.76078 51.7777 7.98271C51.5995 8.20464 51.5087 8.44673 51.5087 8.71237C51.5087 8.97801 51.5087 9.36133 51.5087 9.86235H53.8457V12.3741H51.5087V23.3628H47.9714V12.3741H45.9707V9.86235H47.921V8.98809C47.921 7.52877 48.1664 6.52675 48.6573 5.9753C49.1752 5.15821 50.4193 4.75135 52.3964 4.75135C52.6217 4.74798 52.8235 4.75471 53.0084 4.76816Z" fill="white"/>
<path d="M64.7733 10.0103C65.7249 10.4374 66.5084 11.1065 67.1271 12.0245C67.6852 12.8348 68.0484 13.773 68.2132 14.8423C68.3107 15.4677 68.3477 16.3688 68.3308 17.5457H58.4081C58.4653 18.9109 58.9394 19.8692 59.8338 20.4206C60.3785 20.7636 61.0342 20.9318 61.7975 20.9318C62.6079 20.9318 63.2669 20.7233 63.7746 20.3063C64.0504 20.081 64.2958 19.7683 64.5077 19.3682H68.1459C68.0484 20.1752 67.6079 20.999 66.8244 21.8295C65.6038 23.1544 63.8957 23.8168 61.6966 23.8168C59.8842 23.8168 58.2837 23.2586 56.8983 22.1389C55.513 21.0225 54.8203 19.2034 54.8203 16.6849C54.8203 14.3244 55.4457 12.5154 56.6966 11.2545C57.9474 9.99354 59.5715 9.36475 61.5688 9.36475C62.7558 9.37483 63.8217 9.58667 64.7733 10.0103ZM59.4438 13.0904C58.9394 13.6082 58.6233 14.311 58.4955 15.1987H64.6321C64.5682 14.2538 64.2521 13.5342 63.6839 13.0467C63.1156 12.5558 62.4128 12.3137 61.5722 12.3137C60.6576 12.3103 59.9481 12.5692 59.4438 13.0904Z" fill="white"/>
<path d="M79.0096 10.0103C79.9612 10.4374 80.7447 11.1065 81.3634 12.0245C81.9216 12.8348 82.2847 13.773 82.4495 14.8423C82.547 15.4677 82.584 16.3688 82.5672 17.5457H72.6444C72.7016 18.9109 73.1757 19.8692 74.0701 20.4206C74.6149 20.7636 75.2705 20.9318 76.0338 20.9318C76.8442 20.9318 77.5032 20.7233 78.011 20.3063C78.2867 20.081 78.5322 19.7683 78.744 19.3682H82.3822C82.2847 20.1752 81.8442 20.999 81.0608 21.8295C79.8402 23.1544 78.132 23.8168 75.933 23.8168C74.1206 23.8168 72.52 23.2586 71.1347 22.1389C69.7493 21.0225 69.0566 19.2034 69.0566 16.6849C69.0566 14.3244 69.6821 12.5154 70.9329 11.2545C72.1838 9.99354 73.8078 9.36475 75.8052 9.36475C76.9921 9.37483 78.0614 9.58667 79.0096 10.0103ZM73.6801 13.0904C73.1757 13.6082 72.8596 14.311 72.7319 15.1987H78.8684C78.8045 14.2538 78.4885 13.5342 77.9202 13.0467C77.3519 12.5558 76.6492 12.3137 75.8085 12.3137C74.8939 12.3103 74.1845 12.5692 73.6801 13.0904Z" fill="white"/>
<path d="M91.5964 9.95328C92.2386 10.3164 92.7598 10.8174 93.1599 11.4597V4.95996H96.7712V23.3596H93.3079V21.4732C92.8001 22.2802 92.2218 22.8686 91.5695 23.2352C90.9205 23.6017 90.1101 23.7866 89.1451 23.7866C87.5546 23.7866 86.213 23.1444 85.1269 21.8565C84.0408 20.5687 83.4961 18.9177 83.4961 16.9002C83.4961 14.5767 84.0307 12.7475 85.1034 11.4126C86.1726 10.0811 87.6051 9.41192 89.3973 9.41192C90.2211 9.41192 90.9541 9.59349 91.5964 9.95328ZM92.4706 19.6608C92.9952 18.911 93.2574 17.9392 93.2574 16.7489C93.2574 15.0811 92.8371 13.8908 91.9965 13.1746C91.4787 12.7408 90.8801 12.5256 90.1976 12.5256C89.1552 12.5256 88.3919 12.919 87.9043 13.7058C87.4168 14.4927 87.1713 15.4711 87.1713 16.6379C87.1713 17.8955 87.4201 18.9009 87.9144 19.6575C88.4087 20.4107 89.1619 20.7873 90.1707 20.7873C91.1794 20.7873 91.9461 20.4107 92.4706 19.6608Z" fill="white"/>
<path d="M111.643 11.3723C112.662 12.6635 113.173 14.3313 113.173 16.3723C113.173 18.4907 112.668 20.2425 111.663 21.6346C110.658 23.0267 109.256 23.7227 107.453 23.7227C106.323 23.7227 105.412 23.4974 104.726 23.0469C104.316 22.7812 103.872 22.3138 103.395 21.6481V23.3596H99.8809V4.95996H103.445V11.5101C103.899 10.878 104.397 10.3938 104.941 10.0609C105.587 9.64393 106.411 9.43545 107.406 9.43545C109.212 9.43545 110.624 10.081 111.643 11.3723ZM108.664 19.6743C109.175 18.9312 109.434 17.956 109.434 16.7489C109.434 15.7805 109.306 14.9836 109.057 14.3481C108.58 13.1477 107.695 12.5491 106.411 12.5491C105.11 12.5491 104.212 13.1376 103.728 14.3111C103.475 14.9365 103.348 15.7435 103.348 16.7354C103.348 17.9022 103.607 18.8673 104.128 19.6339C104.649 20.4006 105.442 20.7839 106.508 20.7839C107.433 20.7873 108.153 20.4174 108.664 19.6743Z" fill="white"/>
<path d="M121.044 15.0741C121.706 14.99 122.18 14.8858 122.466 14.7614C122.977 14.5462 123.233 14.2065 123.233 13.7492C123.233 13.1911 123.038 12.8044 122.644 12.5925C122.251 12.3807 121.676 12.2731 120.916 12.2731C120.062 12.2731 119.46 12.4816 119.103 12.8985C118.851 13.2079 118.68 13.6248 118.596 14.1494H115.159C115.233 12.9591 115.569 11.9772 116.165 11.2106C117.109 10.0101 118.734 9.41162 121.037 9.41162C122.537 9.41162 123.865 9.70752 125.028 10.2993C126.192 10.8911 126.773 12.0075 126.773 13.6484V19.8993C126.773 20.333 126.78 20.8576 126.797 21.4729C126.82 21.9403 126.894 22.2564 127.009 22.4245C127.126 22.5926 127.301 22.7271 127.533 22.8381V23.3626H123.66C123.552 23.0869 123.478 22.828 123.434 22.5893C123.394 22.3472 123.36 22.0714 123.333 21.7655C122.839 22.3001 122.268 22.754 121.622 23.1273C120.852 23.5678 119.978 23.7897 119.006 23.7897C117.765 23.7897 116.74 23.4366 115.933 22.7339C115.122 22.0311 114.719 21.0324 114.719 19.7412C114.719 18.0667 115.371 16.8528 116.672 16.103C117.385 15.6961 118.434 15.4036 119.82 15.2287L121.044 15.0741ZM123.219 16.7352C122.99 16.8764 122.762 16.9907 122.53 17.0781C122.298 17.1655 121.978 17.2462 121.575 17.3202L120.765 17.4715C120.005 17.606 119.46 17.7674 119.127 17.9591C118.565 18.2853 118.286 18.7896 118.286 19.4722C118.286 20.0808 118.458 20.5213 118.801 20.7903C119.144 21.0627 119.561 21.1972 120.052 21.1972C120.832 21.1972 121.548 20.9719 122.204 20.5213C122.859 20.0708 123.199 19.2503 123.226 18.06V16.7352H123.219Z" fill="white"/>
<path d="M138.035 14.6236C137.968 14.1158 137.797 13.6585 137.521 13.2483C137.121 12.6968 136.499 12.4245 135.655 12.4245C134.451 12.4245 133.627 13.0196 133.187 14.2133C132.951 14.8455 132.837 15.6861 132.837 16.7318C132.837 17.7305 132.955 18.5308 133.187 19.1394C133.614 20.2726 134.414 20.8408 135.591 20.8408C136.425 20.8408 137.02 20.6155 137.37 20.165C137.719 19.7144 137.935 19.1327 138.008 18.4165H141.647C141.563 19.4992 141.173 20.5247 140.47 21.4931C139.353 23.05 137.696 23.8301 135.503 23.8301C133.311 23.8301 131.694 23.1811 130.661 21.8798C129.626 20.5785 129.111 18.8939 129.111 16.8226C129.111 14.4857 129.683 12.6666 130.826 11.3653C131.969 10.064 133.546 9.41504 135.557 9.41504C137.269 9.41504 138.668 9.79836 139.757 10.565C140.846 11.3317 141.489 12.6868 141.69 14.6269H138.035V14.6236Z" fill="white"/>
<path d="M144.084 4.99707H147.584V14.9366L152.077 9.79872H156.508L151.626 14.8761L156.7 23.3631H152.362L149.06 17.5426L147.584 19.0759V23.3631H144.084V4.99707Z" fill="white"/>
</svg>
