<svg width="22" height="22" viewBox="0 0 22 22" fill="none" xmlns="http://www.w3.org/2000/svg">
<path d="M1.66667 7.66667H20.3333M1.66667 14.3333H20.3333M1 11C1 12.3132 1.25866 13.6136 1.7612 14.8268C2.26375 16.0401 3.00035 17.1425 3.92893 18.0711C4.85752 18.9997 5.95991 19.7363 7.17317 20.2388C8.38642 20.7413 9.68678 21 11 21C12.3132 21 13.6136 20.7413 14.8268 20.2388C16.0401 19.7363 17.1425 18.9997 18.0711 18.0711C18.9997 17.1425 19.7363 16.0401 20.2388 14.8268C20.7413 13.6136 21 12.3132 21 11C21 8.34784 19.9464 5.8043 18.0711 3.92893C16.1957 2.05357 13.6522 1 11 1C8.34784 1 5.8043 2.05357 3.92893 3.92893C2.05357 5.8043 1 8.34784 1 11Z" stroke="#595959" stroke-width="2" stroke-linecap="round" stroke-linejoin="round"/>
<path d="M10.4443 1C8.57245 3.99957 7.58008 7.46429 7.58008 11C7.58008 14.5357 8.57245 18.0004 10.4443 21M11.5554 1C13.4273 3.99957 14.4196 7.46429 14.4196 11C14.4196 14.5357 13.4273 18.0004 11.5554 21" stroke="#595959" stroke-width="2" stroke-linecap="round" stroke-linejoin="round"/>
</svg>
